<mxfile host="app.diagrams.net" modified="2024-03-25T15:13:51.624Z" agent="Mozilla/5.0 (Windows NT 10.0; Win64; x64) AppleWebKit/537.36 (KHTML, like Gecko) Chrome/122.0.0.0 Safari/537.36" etag="XYtJEIwsvS4KDzoPeAVF" version="24.0.5" type="github">
  <diagram name="第 1 页" id="DqVlWCTji90rg62gooER">
    <mxGraphModel dx="1677" dy="983" grid="1" gridSize="10" guides="1" tooltips="1" connect="1" arrows="1" fold="1" page="1" pageScale="1" pageWidth="1169" pageHeight="827" math="0" shadow="0">
      <root>
        <mxCell id="0" />
        <mxCell id="1" parent="0" />
        <mxCell id="LOAEa5G6bL__9LN_u8M_-15" style="edgeStyle=orthogonalEdgeStyle;rounded=0;orthogonalLoop=1;jettySize=auto;html=1;entryX=-0.002;entryY=0.454;entryDx=0;entryDy=0;entryPerimeter=0;" edge="1" parent="1" source="LOAEa5G6bL__9LN_u8M_-5" target="LOAEa5G6bL__9LN_u8M_-9">
          <mxGeometry relative="1" as="geometry" />
        </mxCell>
        <mxCell id="LOAEa5G6bL__9LN_u8M_-17" value="请求" style="edgeLabel;html=1;align=center;verticalAlign=middle;resizable=0;points=[];" vertex="1" connectable="0" parent="LOAEa5G6bL__9LN_u8M_-15">
          <mxGeometry x="0.4213" relative="1" as="geometry">
            <mxPoint x="-24" y="1" as="offset" />
          </mxGeometry>
        </mxCell>
        <mxCell id="LOAEa5G6bL__9LN_u8M_-5" value="" style="rounded=0;whiteSpace=wrap;html=1;fillColor=#d5e8d4;strokeColor=#82b366;dashed=1;" vertex="1" parent="1">
          <mxGeometry x="80" y="200" width="470" height="230" as="geometry" />
        </mxCell>
        <mxCell id="LOAEa5G6bL__9LN_u8M_-7" style="edgeStyle=orthogonalEdgeStyle;rounded=0;orthogonalLoop=1;jettySize=auto;html=1;" edge="1" parent="1" source="LOAEa5G6bL__9LN_u8M_-3" target="LOAEa5G6bL__9LN_u8M_-6">
          <mxGeometry relative="1" as="geometry" />
        </mxCell>
        <mxCell id="LOAEa5G6bL__9LN_u8M_-3" value="前端页面设计：Link或者按钮及其交互时间" style="rounded=0;whiteSpace=wrap;html=1;" vertex="1" parent="1">
          <mxGeometry x="110" y="230" width="290" height="50" as="geometry" />
        </mxCell>
        <mxCell id="LOAEa5G6bL__9LN_u8M_-8" style="edgeStyle=orthogonalEdgeStyle;rounded=0;orthogonalLoop=1;jettySize=auto;html=1;" edge="1" parent="1" source="LOAEa5G6bL__9LN_u8M_-4" target="LOAEa5G6bL__9LN_u8M_-6">
          <mxGeometry relative="1" as="geometry" />
        </mxCell>
        <mxCell id="LOAEa5G6bL__9LN_u8M_-4" value="前端API设计（\ruoyi-ui\src\api）" style="rounded=0;whiteSpace=wrap;html=1;" vertex="1" parent="1">
          <mxGeometry x="110" y="330" width="290" height="60" as="geometry" />
        </mxCell>
        <mxCell id="LOAEa5G6bL__9LN_u8M_-6" value="前端页面" style="rounded=0;whiteSpace=wrap;html=1;" vertex="1" parent="1">
          <mxGeometry x="440" y="270" width="100" height="80" as="geometry" />
        </mxCell>
        <mxCell id="LOAEa5G6bL__9LN_u8M_-16" style="edgeStyle=orthogonalEdgeStyle;rounded=0;orthogonalLoop=1;jettySize=auto;html=1;" edge="1" parent="1" source="LOAEa5G6bL__9LN_u8M_-9">
          <mxGeometry relative="1" as="geometry">
            <mxPoint x="550" y="325" as="targetPoint" />
          </mxGeometry>
        </mxCell>
        <mxCell id="LOAEa5G6bL__9LN_u8M_-18" value="响应" style="edgeLabel;html=1;align=center;verticalAlign=middle;resizable=0;points=[];" vertex="1" connectable="0" parent="LOAEa5G6bL__9LN_u8M_-16">
          <mxGeometry x="-0.3056" y="1" relative="1" as="geometry">
            <mxPoint x="-18" y="-1" as="offset" />
          </mxGeometry>
        </mxCell>
        <mxCell id="LOAEa5G6bL__9LN_u8M_-9" value="" style="rounded=0;whiteSpace=wrap;html=1;fillColor=#d5e8d4;strokeColor=#82b366;dashed=1;" vertex="1" parent="1">
          <mxGeometry x="670" y="210" width="480" height="230" as="geometry" />
        </mxCell>
        <mxCell id="LOAEa5G6bL__9LN_u8M_-10" style="edgeStyle=orthogonalEdgeStyle;rounded=0;orthogonalLoop=1;jettySize=auto;html=1;" edge="1" parent="1" source="LOAEa5G6bL__9LN_u8M_-11" target="LOAEa5G6bL__9LN_u8M_-14">
          <mxGeometry relative="1" as="geometry" />
        </mxCell>
        <mxCell id="LOAEa5G6bL__9LN_u8M_-11" value="后端接口（接口参数以及返回值类型设计）" style="rounded=0;whiteSpace=wrap;html=1;" vertex="1" parent="1">
          <mxGeometry x="820" y="230" width="300" height="50" as="geometry" />
        </mxCell>
        <mxCell id="LOAEa5G6bL__9LN_u8M_-12" style="edgeStyle=orthogonalEdgeStyle;rounded=0;orthogonalLoop=1;jettySize=auto;html=1;" edge="1" parent="1" source="LOAEa5G6bL__9LN_u8M_-13" target="LOAEa5G6bL__9LN_u8M_-14">
          <mxGeometry relative="1" as="geometry" />
        </mxCell>
        <mxCell id="LOAEa5G6bL__9LN_u8M_-13" value="文件读写Utils类（src/main/java/com/ruoyi/common/utils/file）&lt;div&gt;全局配置文件读取获得文件目录（src/main/java/com/ruoyi/common/config/RuoYiConfig.java）&lt;/div&gt;" style="rounded=0;whiteSpace=wrap;html=1;" vertex="1" parent="1">
          <mxGeometry x="820" y="350" width="330" height="60" as="geometry" />
        </mxCell>
        <mxCell id="LOAEa5G6bL__9LN_u8M_-14" value="后端" style="rounded=0;whiteSpace=wrap;html=1;" vertex="1" parent="1">
          <mxGeometry x="680" y="275" width="100" height="80" as="geometry" />
        </mxCell>
      </root>
    </mxGraphModel>
  </diagram>
</mxfile>
